<svg width="38" height="25" viewBox="0 0 38 25" fill="none" xmlns="http://www.w3.org/2000/svg">
  <!-- Gradient-filled background rectangle -->
  <rect y="0.5" width="38" height="24" rx="10" fill="url(#paint0_linear_1071_545)"/>
  <!-- Simplified "+" path with pure white fill -->
  <path d="M18 16.5C18 14.8431 16.6569 13.5 15 13.5H13C12.4477 13.5 12 13.0523 12 12.5C12 11.9477 12.4477 11.5 13 11.5H15C16.6569 11.5 18 10.1569 18 8.5V6.5C18 5.94772 18.4477 5.5 19 5.5C19.5523 5.5 20 5.94772 20 6.5V8.5C20 10.1569 21.3431 11.5 23 11.5H25C25.5523 11.5 26 11.9477 26 12.5C26 13.0523 25.5523 13.5 25 13.5H23C21.3431 13.5 20 14.8431 20 16.5V18.5C20 19.0523 19.5523 19.5 19 19.5C18.4477 19.5 18 19.0523 18 18.5V16.5Z" fill="#FFFFFF"/>
  <defs>
    <linearGradient id="paint0_linear_1071_545" x1="0" y1="0.5" x2="36.4141" y2="26.7038" gradientUnits="userSpaceOnUse">
      <stop stop-color="#0038F5"/>
      <stop offset="1" stop-color="#9F03FF"/>
    </linearGradient>
  </defs>
</svg>