<svg width="18" height="19" viewBox="0 0 18 19" fill="none" xmlns="http://www.w3.org/2000/svg">
<path d="M5 13.125C6.10457 13.125 7 12.2296 7 11.125C7 10.0204 6.10457 9.125 5 9.125C3.89543 9.125 3 10.0204 3 11.125C3 12.2296 3.89543 13.125 5 13.125Z" stroke="#222222" stroke-width="2" stroke-linecap="round" stroke-linejoin="round"/>
<path d="M13 13.125C14.1046 13.125 15 12.2296 15 11.125C15 10.0204 14.1046 9.125 13 9.125C11.8954 9.125 11 10.0204 11 11.125C11 12.2296 11.8954 13.125 13 13.125Z" stroke="#222222" stroke-width="2" stroke-linecap="round" stroke-linejoin="round"/>
<path d="M9 5.125C10.1046 5.125 11 4.22957 11 3.125C11 2.02043 10.1046 1.125 9 1.125C7.89543 1.125 7 2.02043 7 3.125C7 4.22957 7.89543 5.125 9 5.125Z" stroke="#222222" stroke-width="2" stroke-linecap="round" stroke-linejoin="round"/>
<path d="M9 17.125C9 14.9159 7.20912 13.125 5 13.125C2.79086 13.125 1 14.9159 1 17.125" stroke="#222222" stroke-width="2" stroke-linecap="round" stroke-linejoin="round"/>
<path d="M17 17.125C17 14.9159 15.2091 13.125 13 13.125C10.7909 13.125 9 14.9159 9 17.125" stroke="#222222" stroke-width="2" stroke-linecap="round" stroke-linejoin="round"/>
<path d="M13 9.125C13 6.91588 11.2091 5.125 9 5.125C6.79088 5.125 5 6.91588 5 9.125" stroke="#222222" stroke-width="2" stroke-linecap="round" stroke-linejoin="round"/>
</svg>
