<svg width="22" height="20" viewBox="0 0 22 20" fill="none" xmlns="http://www.w3.org/2000/svg">
<path d="M4.8647 8.12305C2.6484 8.65012 1 10.6427 1 13.0203C1 15.8003 3.25365 18.054 6.03366 18.054C6.51055 18.054 6.97194 17.9877 7.40911 17.8637" stroke="#222222" stroke-width="2" stroke-linecap="round" stroke-linejoin="round"/>
<path d="M17.1352 8.12305C19.3516 8.65012 20.9999 10.6427 20.9999 13.0203C20.9999 15.8003 18.7463 18.054 15.9663 18.054C15.4894 18.054 15.028 17.9877 14.5908 17.8637" stroke="#222222" stroke-width="2" stroke-linecap="round" stroke-linejoin="round"/>
<path d="M17.1076 7.98571C17.1076 4.6497 14.4033 1.94531 11.0673 1.94531C7.73124 1.94531 5.02686 4.6497 5.02686 7.98571" stroke="#222222" stroke-width="2" stroke-linecap="round" stroke-linejoin="round"/>
<path d="M7.57715 11.9533L11.0677 8.45117L14.6577 12.0132" stroke="#222222" stroke-width="2" stroke-linecap="round" stroke-linejoin="round"/>
<path d="M11.0674 17.0451V10.2305" stroke="#222222" stroke-width="2" stroke-linecap="round" stroke-linejoin="round"/>
</svg>
