<svg width="16" height="19" viewBox="0 0 16 19" fill="none" xmlns="http://www.w3.org/2000/svg">
<path d="M3.22309 4.68056C4.20493 4.68056 5.00087 3.88462 5.00087 2.90278C5.00087 1.92094 4.20493 1.125 3.22309 1.125C2.24125 1.125 1.44531 1.92094 1.44531 2.90278C1.44531 3.88462 2.24125 4.68056 3.22309 4.68056Z" stroke="#222222" stroke-width="2" stroke-linecap="round" stroke-linejoin="round"/>
<path d="M11.2231 4.68056C12.2049 4.68056 13.0009 3.88462 13.0009 2.90278C13.0009 1.92094 12.2049 1.125 11.2231 1.125C10.2413 1.125 9.44531 1.92094 9.44531 2.90278C9.44531 3.88462 10.2413 4.68056 11.2231 4.68056Z" stroke="#222222" stroke-width="2" stroke-linecap="round" stroke-linejoin="round"/>
<path d="M1 7.34766H5.44444L4.55556 17.1254H1.88889L1 7.34766Z" stroke="#222222" stroke-width="2" stroke-linecap="round" stroke-linejoin="round"/>
<path d="M9.00022 7.34766H13.4447L14.3336 12.2365H13.0002L12.5558 17.1254H9.88911L9.44466 12.2365H8.11133L9.00022 7.34766Z" stroke="#222222" stroke-width="2" stroke-linecap="round" stroke-linejoin="round"/>
</svg>
