<svg width="20" height="20" viewBox="0 0 20 20" fill="none" xmlns="http://www.w3.org/2000/svg">
<path d="M5.78857 7.84333C6.47571 7.76 7.00714 7.905 7.19714 8.015C7.28134 8.06797 7.3738 8.10067 7.46904 8.11116C7.56427 8.12165 7.66034 8.10972 7.75155 8.07606C7.84276 8.04241 7.92724 7.98773 7.99999 7.91526C8.07274 7.84279 8.13227 7.75401 8.17505 7.65419C8.21783 7.55437 8.24299 7.44555 8.24903 7.33417C8.25507 7.22279 8.24188 7.11113 8.21023 7.00581C8.17858 6.90049 8.12912 6.80366 8.06479 6.72107C8.00045 6.63848 7.92256 6.5718 7.83571 6.525C7.33429 6.23167 6.51 6.08 5.64 6.18667C4.26857 6.35333 2.85714 7.74333 2.85714 10.015C2.85714 12.3233 4.36286 13.8483 6.14286 13.8483C6.97143 13.8483 7.71429 13.395 8.13857 12.9267C8.51286 12.5133 8.57143 11.965 8.57143 11.6217V10.015C8.57143 9.79399 8.49617 9.58202 8.36222 9.42574C8.22826 9.26946 8.04658 9.18167 7.85714 9.18167H6.70429C6.51485 9.18167 6.33316 9.26946 6.19921 9.42574C6.06526 9.58202 5.99 9.79399 5.99 10.015C5.99 10.236 6.06526 10.448 6.19921 10.6043C6.33316 10.7605 6.51485 10.8483 6.70429 10.8483H7.14286V11.6217C7.14302 11.6613 7.14015 11.7009 7.13429 11.74C6.85592 12.0134 6.50655 12.169 6.14286 12.1817C5.09857 12.1817 4.28571 11.34 4.28571 10.015C4.28571 8.65167 5.09571 7.92833 5.78857 7.84333ZM11.4286 7.01667C11.4286 6.79565 11.3533 6.58369 11.2194 6.42741C11.0854 6.27113 10.9037 6.18333 10.7143 6.18333C10.5248 6.18333 10.3432 6.27113 10.2092 6.42741C10.0753 6.58369 10 6.79565 10 7.01667V13.0167C10 13.2377 10.0753 13.4496 10.2092 13.6059C10.3432 13.7622 10.5248 13.85 10.7143 13.85C10.9037 13.85 11.0854 13.7622 11.2194 13.6059C11.3533 13.4496 11.4286 13.2377 11.4286 13.0167V7.01667ZM13.5714 6.18333C13.382 6.18333 13.2003 6.27113 13.0664 6.42741C12.9324 6.58369 12.8571 6.79565 12.8571 7.01667V13.0167C12.8571 13.2377 12.9324 13.4496 13.0664 13.6059C13.2003 13.7622 13.382 13.85 13.5714 13.85C13.7609 13.85 13.9426 13.7622 14.0765 13.6059C14.2105 13.4496 14.2857 13.2377 14.2857 13.0167V10.8433L15.7186 10.8333C15.908 10.832 16.0892 10.7429 16.2224 10.5857C16.3555 10.4285 16.4297 10.216 16.4286 9.995C16.4274 9.77399 16.3511 9.56255 16.2163 9.40721C16.0816 9.25187 15.8994 9.16534 15.71 9.16667L14.2857 9.17667V7.84833H16.4286C16.618 7.84833 16.7997 7.76054 16.9336 7.60426C17.0676 7.44798 17.1429 7.23601 17.1429 7.015C17.1429 6.79399 17.0676 6.58203 16.9336 6.42574C16.7997 6.26946 16.618 6.18167 16.4286 6.18167L13.5714 6.18333ZM3.57143 0C2.62423 0 1.71582 0.438987 1.04605 1.22039C0.376274 2.00179 0 3.0616 0 4.16667V15.8333C0 16.9384 0.376274 17.9982 1.04605 18.7796C1.71582 19.561 2.62423 20 3.57143 20H16.4286C17.3758 20 18.2842 19.561 18.954 18.7796C19.6237 17.9982 20 16.9384 20 15.8333V4.16667C20 3.0616 19.6237 2.00179 18.954 1.22039C18.2842 0.438987 17.3758 0 16.4286 0H3.57143ZM1.42857 4.16667C1.42857 3.50363 1.65434 2.86774 2.0562 2.3989C2.45806 1.93006 3.00311 1.66667 3.57143 1.66667H16.4286C16.9969 1.66667 17.5419 1.93006 17.9438 2.3989C18.3457 2.86774 18.5714 3.50363 18.5714 4.16667V15.8333C18.5714 16.4964 18.3457 17.1323 17.9438 17.6011C17.5419 18.0699 16.9969 18.3333 16.4286 18.3333H3.57143C3.00311 18.3333 2.45806 18.0699 2.0562 17.6011C1.65434 17.1323 1.42857 16.4964 1.42857 15.8333V4.16667Z" fill="#222222"/>
</svg>
