<svg width="18" height="22" viewBox="0 0 18 22" fill="none" xmlns="http://www.w3.org/2000/svg">
<path d="M15.7992 20.9999V9.10791H2.19922V20.9999H15.7992Z" stroke="#555555" stroke-width="1.8" stroke-linecap="round" stroke-linejoin="round"/>
<path d="M8.99805 20.017V9.10791" stroke="#555555" stroke-width="1.8" stroke-linecap="round" stroke-linejoin="round"/>
<path d="M17 5.86475H1V9.10802H17V5.86475Z" stroke="#555555" stroke-width="1.8" stroke-linejoin="round"/>
<path d="M7.80859 5.05409C8.91316 5.05409 9.80859 4.14655 9.80859 3.02704C9.80859 1.90754 8.91316 1 7.80859 1C6.70402 1 5.80859 1.90754 5.80859 3.02704C5.80859 4.14655 6.70402 5.05409 7.80859 5.05409Z" stroke="#555555" stroke-width="1.8"/>
<path d="M11.4086 5.05431C12.2922 5.05431 13.0086 4.32827 13.0086 3.43267C13.0086 2.53707 12.2922 1.81104 11.4086 1.81104C10.5249 1.81104 9.80859 2.53707 9.80859 3.43267C9.80859 4.32827 10.5249 5.05431 11.4086 5.05431Z" stroke="#555555" stroke-width="1.8"/>
<path d="M7.00781 7.48665L9.80781 5.0542L12.6078 7.48665" stroke="#555555" stroke-width="1.8" stroke-linecap="round" stroke-linejoin="round"/>
</svg>
