<svg width="22" height="22" viewBox="0 0 22 22" fill="none" xmlns="http://www.w3.org/2000/svg">
<path d="M19.3333 1H2.66666C1.74619 1 1 1.74619 1 2.66667V19.3333C1 20.2538 1.74619 21 2.66666 21H19.3333C20.2538 21 20.9999 20.2538 20.9999 19.3333V2.66667C20.9999 1.74619 20.2538 1 19.3333 1Z" stroke="#222222" stroke-width="1.83019" stroke-linecap="round" stroke-linejoin="round"/>
<path d="M7.67096 10.4442C9.20506 10.4442 10.4487 9.20056 10.4487 7.66645C10.4487 6.13234 9.20506 4.88867 7.67096 4.88867C6.13685 4.88867 4.89319 6.13234 4.89319 7.66645C4.89319 9.20056 6.13685 10.4442 7.67096 10.4442Z" stroke="#222222" stroke-width="1.83019" stroke-linecap="round" stroke-linejoin="round"/>
<path d="M20.9999 17.6669L14.8888 12.1113L9.33331 17.1113L5.44443 13.778L1 17.1113" stroke="#222222" stroke-width="1.83019" stroke-linecap="round" stroke-linejoin="round"/>
</svg>
