<svg width="20" height="23" viewBox="0 0 20 23" fill="none" xmlns="http://www.w3.org/2000/svg">
<path d="M10 10V21.5C8.3543 19.5 3.3143 19.5 1 19.5V8.5C5.93715 8.5 9.05715 9.5 10 10Z" stroke="#222222" stroke-width="2" stroke-linecap="round" stroke-linejoin="round"/>
<path d="M10 10V21.5C11.6457 19.5 16.6857 19.5 19 19.5V8.5C14.0628 8.5 10.9428 9.5 10 10Z" stroke="#222222" stroke-width="2" stroke-linecap="round" stroke-linejoin="round"/>
<path d="M10 9.5C12.2091 9.5 14 7.70914 14 5.5C14 3.29086 12.2091 1.5 10 1.5C7.79086 1.5 6 3.29086 6 5.5C6 7.70914 7.79086 9.5 10 9.5Z" stroke="#222222" stroke-width="2"/>
</svg>
