<svg width="20" height="21" viewBox="0 0 20 21" fill="none" xmlns="http://www.w3.org/2000/svg">
<path d="M10 8.5C11.933 8.5 13.5 6.933 13.5 5C13.5 3.06701 11.933 1.5 10 1.5C8.067 1.5 6.5 3.06701 6.5 5C6.5 6.933 8.067 8.5 10 8.5Z" fill="#888888" stroke="#888888" stroke-width="2" stroke-linecap="round" stroke-linejoin="round"/>
<path d="M1 18.9V19.5H19V18.9C19 16.6598 19 15.5397 18.5641 14.684C18.1806 13.9314 17.5686 13.3195 16.816 12.936C15.9603 12.5 14.8402 12.5 12.6 12.5H7.4C5.1598 12.5 4.0397 12.5 3.18405 12.936C2.43139 13.3195 1.81947 13.9314 1.43598 14.684C1 15.5397 1 16.6598 1 18.9Z" fill="#888888" stroke="#888888" stroke-width="2" stroke-linecap="round" stroke-linejoin="round"/>
</svg>
