<svg width="21" height="20" viewBox="0 0 21 20" fill="none" xmlns="http://www.w3.org/2000/svg">
<path d="M8.5 8C10.433 8 12 6.433 12 4.5C12 2.56701 10.433 1 8.5 1C6.567 1 5 2.56701 5 4.5C5 6.433 6.567 8 8.5 8Z" stroke="#222222" stroke-width="2" stroke-linecap="round" stroke-linejoin="round"/>
<path d="M1 18.4V19H16V18.4C16 16.1598 16 15.0397 15.5641 14.184C15.1806 13.4314 14.5686 12.8195 13.816 12.436C12.9603 12 11.8402 12 9.6 12H7.4C5.1598 12 4.0397 12 3.18404 12.436C2.43139 12.8195 1.81947 13.4314 1.43598 14.184C1 15.0397 1 16.1598 1 18.4Z" stroke="#222222" stroke-width="2" stroke-linecap="round" stroke-linejoin="round"/>
</svg>
