<svg width="18" height="19" viewBox="0 0 18 19" fill="none" xmlns="http://www.w3.org/2000/svg">
<path d="M9 17.125C13.4183 17.125 17 13.5433 17 9.125C17 4.70672 13.4183 1.125 9 1.125C4.58172 1.125 1 4.70672 1 9.125C1 13.5433 4.58172 17.125 9 17.125Z" stroke="#222222" stroke-width="2"/>
<path d="M1 7.86058C2.20594 7.29114 3.09786 7.21181 3.67576 7.62257C4.54264 8.23877 4.65132 10.75 6.623 9.54981C8.59468 8.34961 5.77868 7.86057 6.39 6.12198C7.00132 4.38338 9.00332 5.7339 9.20236 3.8295C9.335 2.55986 7.81632 2.07407 4.64624 2.3721" stroke="#222222" stroke-width="2"/>
<path d="M13.8005 2.72461C11.5148 4.72005 10.7164 5.92505 11.4056 6.33953C12.4392 6.96129 12.8778 6.08593 14.1392 6.33953C15.4005 6.59317 15.1274 8.30289 14.464 8.30289C13.8005 8.30289 10.3645 7.86533 10.5376 9.87061C10.7106 11.8758 12.7774 12.1727 12.7774 13.293C12.7774 14.0399 12.3201 15.183 11.4056 16.7223" stroke="#222222" stroke-width="2" stroke-linecap="round"/>
<path d="M1.8418 12.6962C2.20639 12.5371 2.48046 12.4206 2.664 12.3464C4.20284 11.7247 5.34468 11.5782 6.08944 11.9068C7.40644 12.488 6.90012 13.6616 7.31264 14.094C7.72512 14.5264 8.7552 14.4006 8.7552 15.2232C8.7552 15.7716 8.571 16.3911 8.2026 17.0816" stroke="#222222" stroke-width="2" stroke-linecap="round"/>
</svg>
