<svg width="22" height="22" viewBox="0 0 22 22" fill="none" xmlns="http://www.w3.org/2000/svg">
<path d="M8.1419 20.6118C6.46635 20.1129 4.9749 19.1868 3.79393 17.9596C4.2345 17.4375 4.5 16.7628 4.5 16.0262C4.5 14.3693 3.15685 13.0262 1.5 13.0262C1.39977 13.0262 1.3007 13.0311 1.203 13.0407C1.0699 12.39 1 11.7163 1 11.0262C1 9.98087 1.16039 8.97303 1.4579 8.02588C1.47191 8.02608 1.48594 8.02618 1.5 8.02618C3.15685 8.02618 4.5 6.68303 4.5 5.02618C4.5 4.55053 4.3893 4.10078 4.1923 3.70118C5.34875 2.62588 6.76025 1.82114 8.32605 1.3877C8.8222 2.36022 9.83335 3.02619 11 3.02619C12.1667 3.02619 13.1778 2.36022 13.674 1.3877C15.2398 1.82114 16.6512 2.62588 17.8077 3.70118C17.6107 4.10078 17.5 4.55053 17.5 5.02618C17.5 6.68303 18.8432 8.02618 20.5 8.02618C20.5141 8.02618 20.5281 8.02608 20.5421 8.02588C20.8396 8.97303 21 9.98087 21 11.0262C21 11.7163 20.9301 12.39 20.797 13.0407C20.6993 13.0311 20.6002 13.0262 20.5 13.0262C18.8432 13.0262 17.5 14.3693 17.5 16.0262C17.5 16.7628 17.7655 17.4375 18.2061 17.9596C17.0251 19.1868 15.5336 20.1129 13.8581 20.6118C13.4714 19.4021 12.338 18.5262 11 18.5262C9.662 18.5262 8.5286 19.4021 8.1419 20.6118Z" stroke="#222222" stroke-width="2" stroke-linejoin="round"/>
<path d="M11 14.5264C12.933 14.5264 14.5 12.9594 14.5 11.0264C14.5 9.09337 12.933 7.52637 11 7.52637C9.067 7.52637 7.5 9.09337 7.5 11.0264C7.5 12.9594 9.067 14.5264 11 14.5264Z" stroke="#222222" stroke-width="2" stroke-linejoin="round"/>
</svg>
