<svg width="22" height="23" viewBox="0 0 22 23" fill="none" xmlns="http://www.w3.org/2000/svg">
<path d="M11 21.5C13.7614 21.5 16.2614 20.3807 18.0711 18.5711C19.8807 16.7614 21 14.2614 21 11.5C21 8.7386 19.8807 6.2386 18.0711 4.42893C16.2614 2.61929 13.7614 1.5 11 1.5C8.2386 1.5 5.7386 2.61929 3.92893 4.42893C2.11929 6.2386 1 8.7386 1 11.5C1 14.2614 2.11929 16.7614 3.92893 18.5711C5.7386 20.3807 8.2386 21.5 11 21.5Z" stroke="#222222" stroke-width="2" stroke-linejoin="round"/>
<path d="M11 13.8125V11.8125C12.6568 11.8125 14 10.4693 14 8.8125C14 7.15565 12.6568 5.8125 11 5.8125C9.34315 5.8125 8 7.15565 8 8.8125" stroke="#222222" stroke-width="2" stroke-linecap="round" stroke-linejoin="round"/>
<path d="M11 16.0625C11.5523 16.0625 12 16.5102 12 17.0625C12 17.6148 11.5523 18.0625 11 18.0625C10.4477 18.0625 10 17.6148 10 17.0625C10 16.5102 10.4477 16.0625 11 16.0625Z" fill="#222222" stroke="#222222" stroke-width="0.5"/>
</svg>
